<?xml version="1.0" encoding="UTF-8" standalone="no"?>
<svg width="20px" height="20px" viewBox="0 0 20 20" version="1.1" xmlns="http://www.w3.org/2000/svg" xmlns:xlink="http://www.w3.org/1999/xlink">
    <!-- Generator: Sketch 39.1 (31720) - http://www.bohemiancoding.com/sketch -->
    <title>icon</title>
    <desc>Created with Sketch.</desc>
    <defs></defs>
    <g id="Page-1" stroke="none" stroke-width="1" fill="none" fill-rule="evenodd">
        <g id="HOME-APP-USABILITY" transform="translate(-63.000000, -212.000000)">
            <g id="8-STEPS" transform="translate(25.000000, 163.000000)">
                <g id="LIKE" transform="translate(15.000000, 49.000000)">
                    <g id="icon" transform="translate(23.000000, 0.000000)">
                        <path d="M20,10 C20,4.4772 15.5228,0 10,0 C4.4772,0 0,4.4772 0,10 C0,15.5228 4.4772,20 10,20 C15.5228,20 20,15.5228 20,10" id="Fill-1" fill="#FC656D"></path>
                        <path d="M14.4913333,6.18533333 C14.0193333,5.788 13.43,5.56133333 12.7606667,5.56133333 C11.0686667,5.56133333 9.99933333,7.25066667 9.99933333,7.25066667 C9.99933333,7.25066667 9.88866667,7.076 9.68333333,6.83866667 C9.57533333,6.71466667 9.442,6.57466667 9.28466667,6.43333333 C9.28333333,6.43333333 9.28333333,6.432 9.28333333,6.432 C8.80333333,6.00133333 8.10333333,5.56133333 7.23933333,5.56133333 C5.478,5.56133333 4.28066667,7.12133333 4.28066667,9.22 C4.28066667,10.252 4.806,11.2093333 5.55266667,12.016 C6.90733333,13.476 8.98866667,14.4386667 9.99933333,14.4386667 C11.57,14.4386667 15.7193333,12.0946667 15.7193333,9.22 C15.7193333,7.92 15.2593333,6.82666667 14.4913333,6.18533333" id="Fill-3" fill="#FFFFFF"></path>
                        <path d="M15.7193333,9.22 C15.7193333,12.096 11.57,14.4386667 9.99933333,14.4386667 C8.994,14.4386667 6.93,13.4853333 5.57533333,12.04 C6.91533333,13.2973333 8.73933333,14.1053333 9.666,14.1053333 C11.2366667,14.1053333 15.386,11.7626667 15.386,8.88666667 C15.386,7.79466667 15.062,6.84933333 14.502,6.19333333 C15.2646667,6.83733333 15.7193333,7.92533333 15.7193333,9.22" id="Fill-5" fill="#CFCFCF"></path>
                    </g>
                </g>
            </g>
        </g>
    </g>
</svg>