<?xml version="1.0" encoding="UTF-8" standalone="no"?>
<svg width="20px" height="20px" viewBox="0 0 20 20" version="1.1" xmlns="http://www.w3.org/2000/svg" xmlns:xlink="http://www.w3.org/1999/xlink">
    <!-- Generator: Sketch 39.1 (31720) - http://www.bohemiancoding.com/sketch -->
    <title>icon</title>
    <desc>Created with Sketch.</desc>
    <defs></defs>
    <g id="Page-1" stroke="none" stroke-width="1" fill="none" fill-rule="evenodd">
        <g id="HOME-APP-USABILITY" transform="translate(-120.000000, -212.000000)">
            <g id="8-STEPS" transform="translate(25.000000, 163.000000)">
                <g id="DISLIKE" transform="translate(79.000000, 49.000000)">
                    <g id="icon" transform="translate(16.000000, 0.000000)">
                        <path d="M20,10 C20,4.4772 15.5228,0 10,0 C4.4772,0 0,4.4772 0,10 C0,15.5228 4.4772,20 10,20 C15.5228,20 20,15.5228 20,10" id="Fill-1" fill="#56DBED"></path>
                        <path d="M14.502,6.19266667 C14.0286667,5.79133333 13.4366667,5.562 12.7606667,5.562 C11.13,5.562 10.078,7.13 10.0046667,7.24333333 C9.93266667,7.402 9.86066667,7.56066667 9.78733333,7.718 C9.65,8.014 9.50866667,8.30866667 9.36866667,8.60333333 L9.44733333,8.73133333 L9.622,9.01533333 L9.97133333,9.582 C10.1993333,9.96333333 10.434,10.3406667 10.6566667,10.7246667 L10.7273333,10.846 L10.6526667,10.9233333 L9.81666667,11.7846667 C9.80866667,11.7926667 9.79533333,11.7926667 9.78733333,11.786 C9.78066667,11.7793333 9.77933333,11.7686667 9.78333333,11.7606667 L10.3126667,10.8366667 C10.278,10.7926667 10.2433333,10.7486667 10.2086667,10.7033333 C9.99266667,10.4233333 9.77933333,10.1406667 9.56466667,9.85933333 L9.166,9.326 L8.966,9.05933333 L8.86733333,8.926 L8.818,8.858 L8.79266667,8.82466667 L8.78066667,8.80866667 L8.774,8.79933333 L8.76733333,8.79 C8.74733333,8.758 8.73266667,8.72333333 8.726,8.686 C8.71266667,8.62466667 8.71933333,8.558 8.74466667,8.49933333 L8.746,8.49533333 C8.88333333,8.14466667 9.01666667,7.794 9.15666667,7.446 C9.266,7.174 9.378,6.90333333 9.494,6.634 C9.394,6.53133333 9.27933333,6.42466667 9.15266667,6.31933333 C8.68066667,5.92733333 8.02733333,5.562 7.238,5.562 C5.478,5.562 4.28066667,7.12066667 4.28066667,9.21933333 C4.28066667,10.258 4.814,11.2233333 5.57,12.034 C5.57133333,12.0353333 5.574,12.0366667 5.57533333,12.0393333 C6.93,13.4846667 8.994,14.438 9.99933333,14.438 C11.57,14.438 15.7193333,12.0953333 15.7193333,9.21933333 C15.7193333,7.92466667 15.2646667,6.83666667 14.502,6.19266667" id="Fill-3" fill="#FFFFFF"></path>
                        <path d="M15.7193333,9.21933333 C15.7193333,12.0953333 11.57,14.438 9.99933333,14.438 C8.994,14.438 6.93,13.4846667 5.57533333,12.0393333 C6.91533333,13.2966667 8.73933333,14.1046667 9.666,14.1046667 C11.2366667,14.1046667 15.386,11.762 15.386,8.886 C15.386,7.794 15.062,6.84866667 14.502,6.19266667 C15.2646667,6.83666667 15.7193333,7.92466667 15.7193333,9.21933333" id="Fill-5" fill="#D9D1D1"></path>
                    </g>
                </g>
            </g>
        </g>
    </g>
</svg>